<?xml version="1.0" standalone="no"?>
<!DOCTYPE svg PUBLIC "-//W3C//DTD SVG 20010904//EN"
 "http://www.w3.org/TR/2001/REC-SVG-20010904/DTD/svg10.dtd">
<svg version="1.0" xmlns="http://www.w3.org/2000/svg"
 width="950.000000pt" height="839.000000pt" viewBox="0 0 950.000000 839.000000"
 preserveAspectRatio="xMidYMid meet">

<g transform="translate(0.000000,839.000000) scale(0.100000,-0.100000)"
fill="#000000" stroke="none">
<path d="M4003 5449 c-436 -82 -783 -428 -873 -869 -31 -150 -25 -365 14 -495
37 -122 71 -204 118 -286 22 -38 37 -73 33 -78 -3 -6 -79 -67 -168 -137 -267
-208 -281 -228 -213 -293 l33 -32 1219 4 c1342 4 1338 4 1582 67 171 45 281
101 384 199 210 198 303 503 324 1056 10 270 -10 359 -106 485 l-41 55 59 56
c45 42 72 59 118 73 32 9 75 23 94 30 l35 12 -1 62 c-2 104 -42 123 -176 82
-86 -27 -171 -83 -243 -162 l-60 -66 -107 -5 -106 -5 -31 43 c-31 43 -110 115
-163 148 -42 26 -172 67 -214 67 -55 0 -94 -40 -94 -96 0 -52 26 -76 103 -94
28 -7 70 -22 91 -32 42 -21 136 -105 136 -120 0 -6 -21 -33 -47 -62 -81 -90
-113 -186 -113 -342 0 -46 -4 -84 -9 -84 -5 0 -14 21 -20 46 -7 25 -32 89 -56
141 -129 275 -313 452 -595 571 -159 67 -208 74 -525 78 -244 3 -293 0 -382
-17z m574 -286 c54 -25 93 -86 93 -145 0 -64 -19 -106 -64 -146 -34 -30 -42
-32 -109 -32 -78 1 -90 7 -149 78 -24 28 -28 43 -28 93 0 56 2 62 42 105 24
26 52 50 63 55 34 14 115 10 152 -8z m-1037 -218 c0 -9 -13 -41 -29 -73 -86
-172 -110 -266 -117 -472 -7 -188 10 -286 79 -457 32 -81 42 -115 33 -122 -20
-17 -61 29 -111 129 -38 75 -53 121 -76 229 -53 259 8 531 169 749 26 34 52
42 52 17z m403 -219 c120 -55 153 -187 68 -279 -39 -43 -74 -57 -137 -57 -56
0 -58 1 -111 53 -53 54 -53 54 -53 117 0 76 23 118 83 155 48 28 102 32 150
11z m1247 -6 c58 -29 94 -89 94 -154 0 -64 -23 -108 -76 -146 -33 -25 -51 -30
-95 -30 -82 0 -136 36 -168 112 -29 72 -16 125 47 185 59 57 129 68 198 33z
m-621 -194 c36 -19 89 -80 97 -112 11 -41 -2 -124 -23 -152 -33 -44 -69 -65
-122 -70 -66 -6 -93 2 -136 40 -49 43 -65 77 -65 142 0 48 4 60 32 92 18 21
46 46 63 56 36 22 115 24 154 4z m-400 -516 c35 0 99 -68 114 -120 21 -70 6
-119 -54 -175 -80 -75 -164 -71 -239 11 -45 49 -55 77 -47 141 4 36 13 54 48
89 47 48 87 66 133 58 16 -2 36 -4 45 -4z m751 0 c20 -5 55 -29 79 -54 37 -38
45 -52 49 -94 2 -27 -1 -66 -7 -85 -15 -45 -68 -92 -120 -108 -64 -19 -108 -5
-168 55 -50 50 -53 56 -53 105 0 110 60 175 175 190 6 0 26 -4 45 -9z"/>
</g>
</svg>
